<svg width="100%" height="200" xmlns="http://www.w3.org/2000/svg" xmlns:xlink="http://www.w3.org/1999/xlink">
    
        <ellipse rx="35" ry="13" cx="230" cy="187" fill="gainsboro"/>
        <circle r="50px" fill="orange" cx="230" cy="140"/>
        <circle r="23px" fill="white" cx="223" cy="130"/>
        <circle r="23px" fill="white" cx="248" cy="130"/>
        <circle r="5px" fill="black" cx="250" cy="130"/>
        <circle r="5px" fill="black" cx="228" cy="130"/>
        <circle r="6px" fill="black" cx="237" cy="150"/>
        <circle r="5px" fill="black" cx="510" cy="126"/>
        <circle r="5px" fill="black" cx="540" cy="126"/>
        <polygon points="180,100 201,100 182,125" fill="orange"/>
        <polygon points="185,105 200,105 187,121" fill="black"/>
        <ellipse rx="35" ry="13" cx="173" cy="140" fill="orange" transform="rotate(15 115 70)"/>
        <polygon points="125,143 143,140 130,155" fill="white"/>
        <polygon points="270,90 244,95 270,110"  fill="orange"/>
        <polygon points="265,95 250,98 265,109"  fill="black"/>
        <ellipse rx="10" ry="5" cx="232" cy="164" fill="red"/>
        <ellipse rx="35" ry="13" cx="530" cy="187" fill="gainsboro"/>
        <circle r="50px" fill="yellow" cx="530" cy="140"/>
        <circle r="23px" fill="white" cx="514" cy="125"/>
        <circle r="22px" fill="white" cx="540" cy="125"/>
        <circle r="5px" fill="black" cx="510" cy="126"/>
        <circle r="5px" fill="black" cx="540" cy="126"/>
        <ellipse rx="5" ry="10" cx="530" cy="164" fill="red"/>
        
      
    
</svg>